# xmcd
#
# Track frame offsets: 
#        150
#        14342
#        34324
#        51359
#        63264
#        79481
#        96583
#        118178
#        132858
#        146443
#        162045
#        176245
#
# Disc length: 2572 seconds
#
# Revision: 0
# Processed by: cddbd v1.5.2PL0 Copyright (c) Steve Scherf et al.
# Submitted via: ExactAudioCopy v1.0b4
#
DISCID=ad0a0a0c
DTITLE=Charles Burton Blues Band - I Wouldn't Lie To You
DYEAR=2006
DGENRE=Blues, Electric Blues
TTITLE0=I Wouldn't Lie To You
TTITLE1=Cuba
TTITLE2=You Can't Treat Me That Way
TTITLE3=Big Eyes
TTITLE4=This Little Number
TTITLE5=How We Do It Downtown
TTITLE6=My Baby Don't Love Me
TTITLE7=Swing It
TTITLE8=Block Party
TTITLE9=See My Baby
TTITLE10=I'd Like To Know
TTITLE11=Pull Her Over
EXTD=
EXTT0=
EXTT1=
EXTT2=
EXTT3=
EXTT4=
EXTT5=
EXTT6=
EXTT7=
EXTT8=
EXTT9=
EXTT10=
EXTT11=
PLAYORDER=
